<svg width="16" height="19" viewBox="0 0 16 19" fill="none" xmlns="http://www.w3.org/2000/svg">
<path d="M5.56498 17.0572L5.56428 17.0562L0.651975 9.87076L0.830801 9.69938L0.830879 9.69946L0.838402 9.69194C1.01683 9.51352 1.21634 9.41775 1.45125 9.39065C1.68025 9.36422 1.87239 9.41436 2.05282 9.54323L2.0528 9.54326L2.05718 9.54631L4.40061 11.1827L5.18687 11.7317V10.7727V3.03536C5.18687 2.93232 5.21626 2.86964 5.27275 2.81315C5.32923 2.75667 5.39191 2.72728 5.49495 2.72728C5.59799 2.72728 5.66067 2.75667 5.71715 2.81315C5.77364 2.86964 5.80303 2.93232 5.80303 3.03536V12.9214L3.6006 11.3737L2.90074 12.0656L6.06725 16.6842C6.18289 16.8653 6.34002 17.0061 6.52486 17.1088C6.71806 17.2161 6.92928 17.2727 7.15152 17.2727H12.7677C13.3458 17.2727 13.8531 17.0611 14.2626 16.6515C14.6722 16.242 14.8838 15.7347 14.8838 15.1566V3.84344C14.8838 3.7404 14.9132 3.67772 14.9697 3.62123C15.0262 3.56475 15.0889 3.53536 15.1919 3.53536C15.295 3.53536 15.3576 3.56475 15.4141 3.62123C15.4706 3.67772 15.5 3.7404 15.5 3.84344V15.1566C15.5 15.9118 15.2369 16.5459 14.697 17.0858C14.157 17.6258 13.5229 17.8889 12.7677 17.8889H7.15152C6.82568 17.8889 6.52784 17.8164 6.25061 17.6724C5.9764 17.53 5.74888 17.3277 5.56498 17.0572ZM8.41919 9V1.4192C8.41919 1.31616 8.44858 1.25348 8.50507 1.19699C8.56155 1.14051 8.62423 1.11111 8.72727 1.11111C8.83031 1.11111 8.89299 1.14051 8.94948 1.19699C9.00596 1.25348 9.03535 1.31616 9.03535 1.4192V9H8.41919ZM11.6515 9V2.22728C11.6515 2.12424 11.6809 2.06156 11.7374 2.00507C11.7939 1.94859 11.8566 1.9192 11.9596 1.9192C12.0626 1.9192 12.1253 1.94859 12.1818 2.00507C12.2383 2.06156 12.2677 2.12424 12.2677 2.22728V9H11.6515Z" fill="black" stroke="black"/>
</svg>
