<svg width="78" height="70" viewBox="0 0 78 70" fill="none" xmlns="http://www.w3.org/2000/svg">
<g clip-path="url(#clip0_11_14)">
<path d="M18.5 31.25C26.9223 31.25 33.75 24.4223 33.75 16C33.75 7.57766 26.9223 0.75 18.5 0.75C10.0777 0.75 3.25 7.57766 3.25 16C3.25 24.4223 10.0777 31.25 18.5 31.25Z" stroke="black" stroke-width="1.5"/>
<path d="M76.75 0.75H49.25V28.25H76.75V0.75Z" stroke="black" stroke-width="1.5"/>
<path d="M4.20143 74.75L19 45.6544L33.7986 74.75H4.20143Z" stroke="black" stroke-width="1.5"/>
<path d="M74.0303 47.5303C74.3232 47.2374 74.3232 46.7626 74.0303 46.4697L69.2574 41.6967C68.9645 41.4038 68.4896 41.4038 68.1967 41.6967C67.9038 41.9896 67.9038 42.4645 68.1967 42.7574L72.4393 47L68.1967 51.2426C67.9038 51.5355 67.9038 52.0104 68.1967 52.3033C68.4896 52.5962 68.9645 52.5962 69.2574 52.3033L74.0303 47.5303ZM53.25 77V51H51.75V77H53.25ZM56.5 47.75H73.5V46.25H56.5V47.75ZM53.25 51C53.25 49.2051 54.7051 47.75 56.5 47.75V46.25C53.8766 46.25 51.75 48.3766 51.75 51H53.25Z" fill="black"/>
</g>
<defs>
<clipPath id="clip0_11_14">
<rect width="77" height="86" fill="white" transform="translate(0.5)"/>
</clipPath>
</defs>
</svg>
